# xmcd CD database file
#
# Track frame offsets:
#	150
#	17703
#	38868
#	54923
#	77543
#	99917
#	132472
#	158164
#	184417
#	207891
#	224822
#	243923
#	267534
#	304194
#
# Disc length: 4274 seconds
#
# Revision: 0
# Processed by: cddbd v1.5PL3 Copyright (c) Steve Scherf et al.
# Submitted via: CDex 1.50
#
DISCID=c410b00e
DTITLE=Norah Jones - Live Music Planet Tonite Arte TV
DYEAR=2002
DGENRE=Jazz
TTITLE0=Cold, Cold Heart
TTITLE1=I' ve Got To See You Again
TTITLE2=Come Away With Me
TTITLE3=Turn Me On
TTITLE4=Baby Tonight
TTITLE5=Huong Thanh and Nguyên Lê - What the birds says
TTITLE6=Huong Thanh and Nguyên Lê - The baetle tray
TTITLE7=Huong Thanh and Nguyên Lê - Thing lingh
TTITLE8=Scarlet Walk
TTITLE9=Pancakes
TTITLE10=Crazy
TTITLE11=Virginia
TTITLE12=Mrs jesus
TTITLE13=Strange
EXTD=YEAR: 2002
EXTT0=
EXTT1=
EXTT2=
EXTT3=
EXTT4=
EXTT5=
EXTT6=
EXTT7=
EXTT8=
EXTT9=
EXTT10=
EXTT11=
EXTT12=
EXTT13=
PLAYORDER=
